<svg id="Flourish_-_grey_blob" data-name="Flourish - grey blob" xmlns="http://www.w3.org/2000/svg" width="1812.278" height="1786.543" viewBox="0 0 1812.278 1786.543">
  <g id="header-blob" transform="matrix(-0.839, 0.545, -0.545, -0.839, 1810.084, 1059.352)">
    <path id="Path-Copy-6" d="M815.649,70.874c42.307,54.885,39.56,144.373,110.83,262.39,70.435,118.84,216.553,265.383,219.513,398.364,2.958,133.8-136.411,254.038-288.858,287.293-153.279,33.257-318.809-18.828-480.986-79.13C213.969,880.307,55.971,814.246,14.657,701.894c-41.312-113.173,34.891-271.819,111.8-384.5S280.969,139.656,359.363,91.007C436.924,42.36,516.1,10.948,599.375,4.152,683.478-1.825,772.508,16.811,815.649,70.874Z" transform="matrix(-0.974, -0.225, 0.225, -0.974, 1111.349, 1263.814)" fill="#f2f8fa" fill-rule="evenodd"/>
  </g>
</svg>
