<svg id="Diners.svg" xmlns="http://www.w3.org/2000/svg" width="128" height="80" viewBox="0 0 128 80">
  <defs>
    <style>
      .cls-1 {
        fill: #fff;
        stroke: #d9d9d9;
        stroke-linejoin: round;
        stroke-width: 1px;
      }
    </style>
  </defs>
  <rect id="Rounded_Rectangle_1" data-name="Rounded Rectangle 1" class="cls-1" width="128" height="80" rx="6" ry="6"/>
  <path d="M114.432 66.785C114.432 69.9441 111.432 72.5046 107.73 72.5046H22.27C18.5689 72.5046 15.5684 69.9441 15.5684 66.785V15.2161C15.5684 12.0567 18.5689 9.49626 22.27 9.49626H107.73C111.432 9.49626 114.432 12.0567 114.432 15.2161V66.785Z" fill="white"/>
  <path d="M24.6538 47.6323C24.6538 46.2193 23.8087 46.3121 22.9997 46.2972V45.8889C23.701 45.9186 24.4202 45.9186 25.1233 45.9186C25.8787 45.9186 26.9044 45.8889 28.237 45.8889C32.8967 45.8889 35.4352 48.6059 35.4352 51.3883C35.4352 52.9453 34.3911 56.8571 28.0201 56.8571C27.1034 56.8571 26.2564 56.826 25.411 56.826C24.6018 56.826 23.8087 56.8405 22.9997 56.8571V56.4482C24.0784 56.3531 24.6018 56.3224 24.6538 55.254V47.6323ZM26.4177 55.0019C26.4177 56.2123 27.4084 56.3531 28.2898 56.3531C32.1782 56.3531 33.4539 53.7924 33.4539 51.4513C33.4539 48.5129 31.2949 46.3922 27.8222 46.3922C27.0826 46.3922 26.7423 46.4381 26.4177 46.4549V55.0019Z" fill="#231F20"/>
  <path d="M36.0687 56.4482H36.4099C36.9134 56.4482 37.2738 56.4482 37.2738 55.9285V51.6706C37.2738 50.9801 37.0044 50.8847 36.3376 50.5714V50.3206C37.1833 50.0986 38.1919 49.8021 38.2632 49.7548C38.3898 49.6918 38.4963 49.6749 38.5877 49.6749C38.6759 49.6749 38.713 49.7694 38.713 49.8963V55.9285C38.713 56.4482 39.1097 56.4482 39.6142 56.4482H39.9188V56.8571C39.3068 56.8571 38.6759 56.826 38.0303 56.826C37.3824 56.826 36.7342 56.8405 36.0687 56.8571V56.4482ZM37.994 47.2559C37.525 47.2559 37.1122 46.8789 37.1122 46.4704C37.1122 46.0768 37.5447 45.7146 37.994 45.7146C38.4611 45.7146 38.876 46.0457 38.876 46.4704C38.876 46.8953 38.4792 47.2559 37.994 47.2559Z" fill="#231F20"/>
  <path d="M41.6301 51.766C41.6301 51.1857 41.4314 51.0287 40.587 50.7297V50.4313C41.3594 50.2114 42.0966 50.0062 42.9614 49.6759C43.0158 49.6759 43.0681 49.7073 43.0681 49.8328V50.8546C44.0957 50.2114 44.9776 49.6759 46.1851 49.6759C47.7126 49.6759 48.2523 50.6504 48.2523 51.8761V55.9294C48.2523 56.4492 48.6493 56.4492 49.1525 56.4492H49.4772V56.858C48.8452 56.858 48.2164 56.8269 47.5692 56.8269C46.9208 56.8269 46.2726 56.8415 45.6247 56.858V56.4492H45.9493C46.4536 56.4492 46.8119 56.4492 46.8119 55.9294V51.8614C46.8119 50.9647 46.1851 50.5251 45.158 50.5251C44.5816 50.5251 43.6638 50.933 43.0681 51.2803V55.9294C43.0681 56.4492 43.466 56.4492 43.97 56.4492H44.2933V56.858C43.6638 56.858 43.0338 56.8269 42.3849 56.8269C41.7382 56.8269 41.0896 56.8415 40.4424 56.858V56.4492H40.7671C41.2704 56.4492 41.6301 56.4492 41.6301 55.9294V51.766Z" fill="#231F20"/>
  <path d="M50.8474 52.5214C50.8104 52.6629 50.8104 52.8982 50.8474 53.4328C50.9531 54.9252 52.0533 56.1502 53.4915 56.1502C54.4826 56.1502 55.2569 55.6787 55.9215 55.0983L56.1728 55.3185C55.3448 56.2768 54.3195 57.0942 52.8451 57.0942C49.983 57.0942 49.407 54.6731 49.407 53.6681C49.407 50.588 51.7821 49.6759 53.0404 49.6759C54.4997 49.6759 56.0665 50.4772 56.0831 52.1434C56.0831 52.2389 56.0831 52.3322 56.0665 52.4266L55.9037 52.5214H50.8474ZM54.0338 52.0181C54.4826 52.0181 54.5353 51.8136 54.5353 51.6243C54.5353 50.8243 53.9778 50.1799 52.9696 50.1799C51.8726 50.1799 51.1168 50.8857 50.9008 52.0181H54.0338Z" fill="#231F20"/>
  <path d="M56.4997 56.4492H56.986C57.4879 56.4492 57.8482 56.4492 57.8482 55.9294V51.5149C57.8482 51.0287 57.1828 50.933 56.9126 50.8073V50.5724C58.2262 50.0849 58.9464 49.6759 59.111 49.6759C59.2163 49.6759 59.2704 49.7231 59.2704 49.8811V51.2954H59.3082C59.7567 50.6828 60.5139 49.6759 61.6111 49.6759C62.0607 49.6759 62.636 49.9429 62.636 50.5089C62.636 50.933 62.2957 51.3119 61.792 51.3119C61.2323 51.3119 61.2323 50.933 60.6018 50.933C60.2964 50.933 59.2885 51.2954 59.2885 52.2388V55.9294C59.2885 56.4492 59.6481 56.4492 60.1522 56.4492H61.1589V56.858C60.1692 56.8415 59.4161 56.8269 58.6414 56.8269C57.9034 56.8269 57.1473 56.8415 56.4997 56.858V56.4492Z" fill="#231F20"/>
  <path d="M63.4289 54.6731C63.6636 55.71 64.3819 56.5913 65.6981 56.5913C66.7582 56.5913 67.1537 56.0249 67.1537 55.4754C67.1537 53.6202 63.2317 54.2181 63.2317 51.6884C63.2317 50.8073 64.042 49.6762 66.0217 49.6762C66.5966 49.6762 67.3701 49.8187 68.0714 50.1332L68.1978 51.7347H67.7842C67.6044 50.7452 66.9754 50.1799 65.8223 50.1799C65.1025 50.1799 64.4193 50.5407 64.4193 51.2164C64.4193 53.0561 68.5933 52.4894 68.5933 54.9566C68.5933 55.993 67.6407 57.0942 65.4983 57.0942C64.7792 57.0942 63.9319 56.8739 63.304 56.5596L63.105 54.7523L63.4289 54.6731Z" fill="#231F20"/>
  <path d="M84.846 48.7321H84.3972C84.0547 46.8953 82.5609 46.1559 80.5467 46.1559C78.4748 46.1559 75.4706 47.365 75.4706 51.1362C75.4706 54.3115 78.063 56.5903 80.8336 56.5903C82.6135 56.5903 84.0925 55.5213 84.4516 53.8704L84.8657 53.9642L84.4516 56.2592C83.6959 56.6683 81.6617 57.0933 80.4726 57.0933C76.2634 57.0933 73.6002 54.72 73.6002 51.1848C73.6002 47.9625 76.8935 45.6519 80.4207 45.6519C81.8778 45.6519 83.2811 46.0617 84.667 46.4864L84.846 48.7321Z" fill="#231F20"/>
  <path d="M85.4988 56.4481H85.8394C86.345 56.4481 86.7041 56.4481 86.7041 55.9283V47.1782C86.7041 46.1557 86.4347 46.1246 85.7501 45.9514V45.6997C86.4695 45.4958 87.226 45.2136 87.6048 45.0236C87.8002 44.9307 87.9455 44.8504 87.9985 44.8504C88.1086 44.8504 88.1441 44.9458 88.1441 45.0721V55.9283C88.1441 56.4481 88.5404 56.4481 89.0437 56.4481H89.3484V56.8569C88.7383 56.8569 88.1086 56.8258 87.4603 56.8258C86.8127 56.8258 86.1656 56.8404 85.4988 56.8569V56.4481Z" fill="#231F20"/>
  <path d="M97.0542 55.993C97.0542 56.2768 97.2511 56.2917 97.5561 56.2917C97.7733 56.2917 98.0421 56.2768 98.2778 56.2768V56.6075C97.5035 56.6697 96.0272 56.9998 95.6847 57.0942L95.595 57.0465V55.7735C94.5164 56.5432 93.6876 57.0942 92.408 57.0942C91.4365 57.0942 90.4295 56.5432 90.4295 55.2249V51.2009C90.4295 50.7919 90.3579 50.399 89.3516 50.3216V50.0222C89.9999 50.0067 91.4365 49.9129 91.6712 49.9129C91.871 49.9129 91.871 50.0222 91.871 50.3685V54.4222C91.871 54.8942 91.871 56.244 93.4362 56.244C94.0471 56.244 94.857 55.8366 95.6124 55.2874V51.0592C95.6124 50.7452 94.7491 50.5724 94.1023 50.416V50.1335C95.7203 50.0378 96.7292 49.9129 96.909 49.9129C97.0543 49.9129 97.0542 50.0222 97.0542 50.1957V55.993Z" fill="#231F20"/>
  <path d="M100.637 50.8061C101.356 50.2731 102.328 49.6747 103.318 49.6747C105.406 49.6747 106.666 51.2635 106.666 52.976C106.666 55.0337 104.937 57.093 102.363 57.093C101.033 57.093 100.331 56.7148 99.8616 56.5419L99.3234 56.9034L98.9461 56.7312C99.107 55.8042 99.1978 54.893 99.1978 53.9339V47.1781C99.1978 46.1557 98.9268 46.1246 98.243 45.9513V45.6996C98.9635 45.4957 99.7186 45.2135 100.096 45.0235C100.295 44.9306 100.438 44.8503 100.493 44.8503C100.6 44.8503 100.637 44.9461 100.637 45.072V50.8061ZM100.637 55.0806C100.637 55.6774 101.285 56.6841 102.49 56.6841C104.416 56.6841 105.225 55.0337 105.225 53.6345C105.225 51.938 103.751 50.5239 102.348 50.5239C101.679 50.5239 101.122 50.9017 100.637 51.2635V55.0806Z" fill="#231F20"/>
  <path d="M22.9797 65.9972H23.1173C23.4693 65.9972 23.8415 65.9553 23.8415 65.5102V61.0308C23.8415 60.5852 23.4693 60.5428 23.1173 60.5428H22.9797V60.2858C23.3614 60.2858 23.9491 60.3198 24.4301 60.3198C24.9193 60.3198 25.5062 60.2858 25.9666 60.2858V60.5428H25.8281C25.4775 60.5428 25.1047 60.5852 25.1047 61.0308V65.5102C25.1047 65.9553 25.4775 65.9972 25.8281 65.9972H25.9666V66.2543C25.4969 66.2543 24.9079 66.2213 24.4199 66.2213C23.9392 66.2213 23.3614 66.2543 22.9797 66.2543V65.9972Z" fill="#231F20"/>
  <path d="M25.9666 66.2908C25.4926 66.2908 24.9067 66.2565 24.4192 66.2565C23.9399 66.2565 23.3641 66.2908 22.9797 66.2908H22.937V66.2542V65.9976V65.9604H22.9797H23.1165C23.472 65.9529 23.795 65.9281 23.7981 65.5102V61.0308C23.795 60.6123 23.472 60.5852 23.1165 60.5797H22.937V60.5424V60.2486H22.9797C23.3641 60.2486 23.9512 60.2818 24.43 60.2818C24.9171 60.2818 25.5035 60.2486 25.9666 60.2486H26.0101V60.2868V60.5797H25.9666H25.83C25.4741 60.5852 25.1492 60.6123 25.1472 61.0308V65.5102C25.1492 65.9281 25.4741 65.9529 25.83 65.9604H26.0101V65.9976V66.2908H25.9666ZM25.9241 66.2177L25.9246 66.0358H25.83C25.4798 66.0358 25.0635 65.982 25.0612 65.5102V61.0308C25.0635 60.558 25.4798 60.5053 25.83 60.5053H25.9241V60.3227C25.4724 60.3229 24.9048 60.3573 24.43 60.3573C23.9649 60.3573 23.4017 60.3252 23.0226 60.3227V60.5053H23.1165C23.4656 60.5053 23.8826 60.558 23.8826 61.0308V65.5102C23.8826 65.982 23.4656 66.0358 23.1165 66.0358H23.0226V66.2177C23.4017 66.2148 23.9548 66.1833 24.4192 66.1833C24.8963 66.1833 25.4622 66.2154 25.9241 66.2177Z" fill="#231F20"/>
  <path d="M32.6945 64.569L32.7141 64.5522V61.3468C32.7141 60.6451 32.1552 60.5424 31.8617 60.5424H31.646V60.2858C32.107 60.2858 32.5574 60.3198 33.0167 60.3198C33.418 60.3198 33.8217 60.2858 34.2213 60.2858V60.5424H34.0759C33.6633 60.5424 33.203 60.6107 33.203 61.6283V65.5186C33.203 65.8183 33.2127 66.1173 33.2608 66.3827H32.8887L27.8467 61.4739V64.9976C27.8467 65.742 28.0121 65.9972 28.7663 65.9972H28.9331V66.2543C28.512 66.2543 28.0913 66.2209 27.6702 66.2209C27.2307 66.2209 26.7796 66.2543 26.3384 66.2543V65.9972H26.4757C27.1513 65.9972 27.3568 65.5953 27.3568 64.9134V61.3109C27.3568 60.8325 26.9051 60.5424 26.4663 60.5424H26.3384V60.2858C26.7098 60.2858 27.0922 60.3198 27.4635 60.3198C27.7581 60.3198 28.0423 60.2858 28.3358 60.2858L32.6945 64.569Z" fill="#231F20"/>
  <path d="M33.2606 66.4188L32.8574 66.4068L27.8881 61.5705V64.9977C27.8998 65.741 28.0293 65.9524 28.7664 65.9605H28.9762V65.9973V66.2909H28.9329C28.5093 66.2909 28.0878 66.2566 27.6699 66.2566C27.2315 66.2566 26.7815 66.2909 26.338 66.2909H26.2949V66.2543V65.9605H26.338H26.4759C27.1229 65.9572 27.3078 65.5941 27.3149 64.9131V61.3122C27.313 60.8568 26.8855 60.5798 26.4664 60.5798H26.2949V60.5409V60.2487H26.338C26.7121 60.2487 27.0956 60.282 27.4627 60.282C27.7549 60.282 28.0378 60.2487 28.3681 60.262L32.6714 64.4917V61.3469C32.6664 60.6678 32.1468 60.5853 31.8619 60.5798H31.6028V60.5409V60.2487H31.6461C32.1087 60.2487 32.5593 60.282 33.0168 60.282C33.4151 60.282 33.8166 60.2487 34.2215 60.2487H34.2643V60.2859V60.5798H34.2215H34.0758C33.6713 60.5888 33.2568 60.6199 33.2447 61.6284V65.5187C33.2447 65.818 33.2556 66.1165 33.3026 66.3761L33.3115 66.4188H33.2606ZM32.889 66.3444H33.2129C33.169 66.0871 33.1613 65.8031 33.1613 65.5187V61.6284C33.1613 60.6021 33.6539 60.5054 34.0758 60.5047H34.1788V60.3228C33.7929 60.3253 33.4063 60.3564 33.0168 60.3564C32.5684 60.3564 32.1325 60.3253 31.6898 60.3228L31.6888 60.5047H31.8619C32.1629 60.5054 32.7562 60.6222 32.7562 61.3469L32.7432 64.5792L32.7241 64.5956L32.6905 64.6232L28.3357 60.3228C28.0448 60.3228 27.7616 60.3564 27.4627 60.3564C27.1041 60.3564 26.7364 60.3253 26.3812 60.3228L26.3794 60.5047H26.4664C26.9259 60.5054 27.3983 60.8116 27.3983 61.3122V64.9131C27.3983 65.5973 27.1801 66.0342 26.4759 66.0365L26.3812 66.0342V66.2178C26.8053 66.2149 27.2424 66.1834 27.6699 66.1834C28.0785 66.1834 28.4863 66.2149 28.8902 66.2178V66.0365H28.7664C27.9957 66.0342 27.805 65.741 27.8043 64.9977V61.3782L32.889 66.3444ZM32.6714 64.5523V64.549L32.6636 64.5435L32.6714 64.5523Z" fill="#231F20"/>
  <path d="M35.6908 60.7134C34.9554 60.7134 34.9272 60.8681 34.7801 61.4914H34.4862C34.5247 61.252 34.5736 61.0127 34.6041 60.7648C34.6433 60.5244 34.6627 60.2858 34.6627 60.0385H34.8975C34.9763 60.2952 35.2211 60.2858 35.4867 60.2858H40.5373C40.803 60.2858 41.0473 60.2775 41.0676 60.0207L41.3012 60.0557C41.2635 60.2858 41.2234 60.5169 41.1948 60.7483C41.1757 60.9791 41.1757 61.2092 41.1757 61.44L40.8811 61.5352C40.8612 61.2192 40.8129 60.7134 40.1568 60.7134H38.5507V65.2623C38.5507 65.9219 38.8937 65.9972 39.3629 65.9972H39.5497V66.2543C39.1679 66.2543 38.4821 66.2213 37.954 66.2213C37.3659 66.2213 36.6797 66.2543 36.2976 66.2543V65.9972H36.4844C37.0242 65.9972 37.297 65.9553 37.297 65.28V60.7134H35.6908Z" fill="#231F20"/>
  <path d="M39.5506 66.2908C39.1648 66.2908 38.48 66.2569 37.954 66.2569C37.3666 66.2569 36.6819 66.2908 36.2976 66.2908H36.2561V66.2542V65.9604H36.2976H36.4844C37.0242 65.9494 37.2409 65.9432 37.2534 65.28V60.7499H35.6908V60.7133V60.6752H37.3384V65.28C37.3384 65.9665 37.0214 66.0358 36.4844 66.0364H36.3395V66.217C36.7258 66.2148 37.3856 66.1833 37.954 66.1833C38.4641 66.1833 39.118 66.2148 39.506 66.217V66.0364H39.3629C38.8896 66.0358 38.5083 65.9341 38.5083 65.2623V60.6752H40.1568C40.8136 60.6774 40.9005 61.1648 40.9212 61.483L41.1328 61.4146C41.1328 61.1914 41.134 60.9677 41.1517 60.743C41.1804 60.5221 41.2159 60.3048 41.2529 60.0858L41.1039 60.064C41.0583 60.3129 40.7825 60.3262 40.5369 60.3229H35.4867H35.4354C35.2052 60.3233 34.954 60.3136 34.8661 60.0752H34.7045C34.7027 60.3113 34.6843 60.5408 34.6471 60.7687C34.6178 61.0036 34.5732 61.2292 34.5374 61.4557H34.7464C34.8754 60.8592 34.9591 60.6667 35.6908 60.6752V60.7133V60.7499C34.9657 60.7625 34.9813 60.8684 34.8218 61.5001L34.8147 61.5293H34.7801H34.4374L34.4427 61.4849C34.4826 61.2463 34.5321 61.0063 34.5608 60.758C34.6014 60.5208 34.6203 60.2835 34.6203 60.0385V60.0007H34.6622H34.9311L34.9385 60.0275C35.0047 60.243 35.1857 60.2447 35.4354 60.2486H35.4867H40.5369C40.8097 60.2447 41.0083 60.2414 41.025 60.0177L41.0286 59.9773L41.0728 59.9851L41.3497 60.0233L41.3426 60.0611C41.3037 60.2907 41.2655 60.5208 41.2362 60.7499C41.2177 60.9791 41.2177 61.2088 41.2177 61.4399V61.4658L41.1892 61.4758L40.843 61.5866L40.8404 61.537C40.8136 61.2152 40.7757 60.7499 40.1568 60.7499H38.5934V65.2623C38.6034 65.9069 38.8963 65.9523 39.3629 65.9604H39.5923V65.9972V66.2908H39.5506Z" fill="#231F20"/>
  <path d="M41.6158 65.9972H41.7536C42.1053 65.9972 42.4782 65.9553 42.4782 65.5102V61.0308C42.4782 60.5852 42.1053 60.5428 41.7536 60.5428H41.6158V60.2858C42.2113 60.2858 43.232 60.3198 44.0528 60.3198C44.8771 60.3198 45.8938 60.2858 46.5598 60.2858C46.5429 60.6535 46.552 61.2192 46.5807 61.5947L46.2858 61.6626C46.2385 61.1066 46.1213 60.6632 45.0924 60.6632H43.7329V62.902H44.8961C45.4835 62.902 45.6116 62.6122 45.6697 62.1501H45.9632C45.9438 62.4841 45.9335 62.8174 45.9335 63.1505C45.9335 63.4761 45.9438 63.8007 45.9632 64.125L45.6697 64.1761C45.6116 63.6638 45.5822 63.3304 44.9061 63.3304H43.7329V65.3215C43.7329 65.8782 44.2988 65.8782 44.9258 65.8782C46.101 65.8782 46.6197 65.8093 46.9138 64.8358L47.1869 64.8946C47.0597 65.3487 46.9428 65.8005 46.8552 66.2543C46.2277 66.2543 45.1017 66.2213 44.2221 66.2213C43.3389 66.2213 42.1746 66.2543 41.6158 66.2543V65.9972Z" fill="#231F20"/>
  <path d="M46.8545 66.2908C46.2261 66.2908 45.0994 66.2552 44.2211 66.2552C43.3387 66.2552 42.1749 66.2908 41.6156 66.2908H41.5745V66.2542V65.9972V65.9604H41.6156H41.7535C42.1077 65.9552 42.4303 65.9281 42.4347 65.5102V61.0308C42.4303 60.613 42.1077 60.5852 41.7535 60.5797H41.5745V60.5424V60.2486H41.6156C42.2139 60.2486 43.2325 60.2818 44.0531 60.2818C44.8764 60.2818 45.8929 60.2486 46.5598 60.2486H46.6031L46.6017 60.2881C46.5953 60.4159 46.5914 60.5679 46.5914 60.7289C46.5914 61.0244 46.6017 61.3484 46.6211 61.5917L46.6228 61.6221L46.5897 61.6308L46.2455 61.7096L46.2441 61.6654C46.1861 61.1108 46.1009 60.7071 45.0924 60.6988H43.773L43.7721 62.8643H44.8959C45.4603 62.8592 45.5612 62.6073 45.628 62.1461L45.6301 62.1119H45.6691H46.0068L46.006 62.1509C45.987 62.485 45.9756 62.8173 45.9756 63.1505C45.9756 63.4737 45.987 63.7984 46.006 64.1233L46.0068 64.1544L45.9711 64.1615L45.6301 64.2208L45.628 64.1806C45.5601 63.6586 45.5558 63.3725 44.9058 63.3663H43.773V65.3214C43.7743 65.8412 44.2872 65.8383 44.9256 65.8412C46.1046 65.8351 46.5769 65.7845 46.8718 64.8256L46.8819 64.791L46.9231 64.7968L47.237 64.8681L47.2281 64.9033C47.1011 65.3557 46.9844 65.8079 46.8956 66.2604L46.8882 66.2908H46.8545ZM46.8181 66.217C46.9037 65.7845 47.0154 65.3528 47.1354 64.9224L46.9427 64.88C46.6495 65.8364 46.0813 65.9218 44.9256 65.9154C44.3084 65.9154 43.6916 65.9154 43.6884 65.3214V63.2932H44.9058C45.5898 63.287 45.6588 63.6469 45.7076 64.1333L45.919 64.0955C45.9001 63.7802 45.8905 63.4637 45.8905 63.1505C45.8905 62.8293 45.9001 62.509 45.919 62.1862H45.7076C45.6525 62.6329 45.4926 62.9445 44.8959 62.9391H43.6884V60.6246H45.0924C46.1109 60.6175 46.2795 61.0777 46.324 61.6156L46.535 61.5655C46.5179 61.3243 46.5066 61.0144 46.5066 60.7289C46.5066 60.5826 46.5108 60.4437 46.5164 60.3227C45.8511 60.3252 44.858 60.3563 44.0531 60.3563C43.2484 60.3563 42.2579 60.3252 41.6586 60.3227V60.5046H41.7535C42.1018 60.5053 42.5185 60.558 42.5208 61.0308V65.5102C42.5185 65.982 42.1018 66.0341 41.7535 66.0364H41.6586V66.217C42.2288 66.2154 43.3606 66.1833 44.2211 66.1833C45.0853 66.1833 46.1869 66.2154 46.8181 66.217Z" fill="#231F20"/>
  <path d="M48.5109 61.1914C48.5109 60.568 48.1188 60.5425 47.8149 60.5425H47.638V60.2858C47.9514 60.2858 48.5587 60.3198 49.1565 60.3198C49.7429 60.3198 50.2136 60.2858 50.7326 60.2858C51.9647 60.2858 53.0637 60.5761 53.0637 61.7912C53.0637 62.5601 52.4758 63.0298 51.7026 63.2964L53.3761 65.484C53.6512 65.8458 53.8454 65.9472 54.3265 65.9972V66.2543C54.0026 66.2543 53.6894 66.2213 53.3672 66.2213C53.0637 66.2213 52.749 66.2543 52.4469 66.2543C51.6924 65.3912 51.0454 64.468 50.4095 63.4831H49.7641V65.314C49.7641 65.9723 50.1159 65.9972 50.5647 65.9972H50.7422V66.2543C50.1829 66.2543 49.6174 66.2213 49.0579 66.2213C48.5881 66.2213 48.1277 66.2543 47.638 66.2543V65.9972H47.8149C48.1785 65.9972 48.5109 65.8526 48.5109 65.5368V61.1914ZM49.7641 63.1748H50.2426C51.2231 63.1748 51.7507 62.8508 51.7507 61.8412C51.7507 61.081 51.1927 60.5937 50.3201 60.5937C50.0261 60.5937 49.9009 60.6198 49.7641 60.6283V63.1748Z" fill="#231F20"/>
  <path d="M54.3265 66.2908C53.9981 66.2908 53.6867 66.2565 53.3646 66.2565C53.0663 66.2565 52.7531 66.2908 52.4121 66.2766C51.6608 65.4157 51.0169 64.4978 50.3845 63.5216H49.8059V65.3123C49.8168 65.9561 50.1121 65.9513 50.5647 65.9604H50.7845V65.9972V66.2908H50.7411C50.1815 66.2908 49.6125 66.2565 49.0575 66.2565C48.5898 66.2565 48.1298 66.2908 47.638 66.2908H47.5954V66.2542V65.9604H47.638H47.8149C48.1669 65.9581 48.4646 65.8241 48.466 65.5368V61.1914C48.4586 60.5852 48.1188 60.588 47.8149 60.5797H47.5954V60.5428V60.2486H47.638C47.9549 60.2486 48.5594 60.2818 49.1565 60.2818C49.7412 60.2818 50.2107 60.2486 50.7326 60.2486C51.9672 60.2509 53.1033 60.5476 53.1063 61.7897C53.1063 62.5613 52.5221 63.0436 51.7671 63.3125L53.4113 65.4636C53.6853 65.8183 53.8558 65.9069 54.3321 65.9604L54.3677 65.9652V65.9972V66.2908H54.3265ZM49.7638 63.4463H50.4329L50.445 63.4654C51.0827 64.4476 51.7259 65.371 52.4469 66.2177C52.7449 66.2177 53.0596 66.1833 53.3646 66.1833C53.6771 66.1833 53.9796 66.2131 54.2835 66.217V66.0293C53.8246 65.9804 53.6089 65.8594 53.3417 65.505L51.6369 63.2793L51.6853 63.2621C52.4521 62.9982 53.0203 62.5416 53.0207 61.7897C53.0203 60.6036 51.9636 60.3285 50.7326 60.3227C50.2171 60.3227 49.7464 60.3573 49.1565 60.3573C48.5813 60.3573 48.0003 60.3252 47.6798 60.3227V60.5046H47.8149C48.1188 60.5053 48.5513 60.5492 48.5513 61.1914V65.5368C48.5513 65.8797 48.1831 66.0358 47.8149 66.0364H47.6798V66.217C48.1505 66.2154 48.5976 66.1833 49.0575 66.1833C49.6042 66.1833 50.1575 66.2154 50.6988 66.217V66.0364H50.5647C50.1188 66.0358 49.7203 65.9876 49.7203 65.3123V63.4463H49.7638ZM49.7638 63.2115H49.7203V60.5936L49.7578 60.591C49.8919 60.5816 50.0239 60.558 50.3201 60.558C51.2118 60.558 51.7927 61.0638 51.7936 61.8435C51.7908 62.8643 51.2305 63.2113 50.2426 63.2115H49.7638ZM50.2426 63.1387C51.2118 63.1304 51.7005 62.8368 51.71 61.8435C51.7041 61.0965 51.1729 60.6331 50.3201 60.6298C50.0558 60.6298 49.931 60.6512 49.8059 60.6619V63.1387H50.2426Z" fill="#231F20"/>
  <path d="M60.9764 64.569L60.9935 64.5522V61.3468C60.9935 60.6451 60.4371 60.5424 60.1432 60.5424H59.9286V60.2858C60.3889 60.2858 60.8378 60.3198 61.2992 60.3198C61.7018 60.3198 62.1002 60.2858 62.5046 60.2858V60.5424H62.3571C61.9457 60.5424 61.4857 60.6107 61.4857 61.6283V65.5186C61.4857 65.8183 61.4953 66.1173 61.5435 66.3827H61.1729L56.1304 61.4739V64.9976C56.1304 65.742 56.2957 65.9972 57.0496 65.9972H57.2164V66.2543C56.7957 66.2543 56.3739 66.2209 55.9532 66.2209C55.511 66.2209 55.0614 66.2543 54.6211 66.2543V65.9972H54.7571C55.4332 65.9972 55.64 65.5953 55.64 64.9134V61.3109C55.64 60.8325 55.1889 60.5424 54.7486 60.5424H54.6211V60.2858C54.9918 60.2858 55.3765 60.3198 55.7479 60.3198C56.0389 60.3198 56.3243 60.2858 56.6186 60.2858L60.9764 64.569Z" fill="#231F20"/>
  <path d="M61.5431 66.4188L61.141 66.4068L56.1708 61.5711V64.9973C56.1823 65.7421 56.3113 65.9524 57.0496 65.9605H57.2572V65.9973V66.2909H57.2146C56.7913 66.2909 56.371 66.2553 55.9514 66.2553C55.5144 66.2553 55.0618 66.2909 54.6207 66.2909H54.577V66.2543V65.9605H54.6207H54.7571C55.4039 65.9582 55.5892 65.5941 55.5956 64.9112V61.3109C55.5944 60.8552 55.1674 60.5798 54.7486 60.5798H54.577V60.5425V60.2487H54.6207C54.9947 60.2487 55.378 60.282 55.7475 60.282C56.0352 60.282 56.3187 60.2487 56.6471 60.2597L60.9519 64.4917V61.3469C60.9493 60.6678 60.4278 60.5836 60.1432 60.5798H59.8848V60.5425V60.2487H59.9274C60.39 60.2487 60.8415 60.282 61.2992 60.282C61.6981 60.282 62.0991 60.2487 62.5028 60.2487H62.5461V60.2869V60.5798H62.5028H62.3571C61.9531 60.5882 61.5368 60.6199 61.5272 61.6284V65.5187C61.5272 65.818 61.5357 66.1145 61.5858 66.3767L61.5906 66.4188H61.5431ZM61.1725 66.3444H61.4935C61.4505 66.0886 61.4419 65.8031 61.4419 65.5187V61.6284C61.4427 60.6021 61.9379 60.507 62.3571 60.5047H62.4602V60.3228C62.0747 60.3253 61.6877 60.3564 61.2992 60.3564C60.8493 60.3564 60.413 60.3253 59.9701 60.3228V60.5047H60.1432C60.4449 60.507 61.0379 60.6222 61.0379 61.3469L61.0238 64.5792L61.0061 64.5956L60.9753 64.6238L56.6186 60.3228C56.3272 60.3228 56.0433 60.3564 55.7475 60.3564C55.3843 60.3564 55.0184 60.3253 54.6626 60.3228V60.5047H54.7486C55.2093 60.507 55.6804 60.8102 55.6804 61.3109V64.9112C55.6804 65.5973 55.4591 66.0342 54.7571 66.0365L54.6626 66.0359V66.2174C55.0855 66.2149 55.5218 66.1834 55.9514 66.1834C56.3621 66.1834 56.7691 66.2149 57.1738 66.2174V66.0365H57.0496C56.279 66.0359 56.087 65.7421 56.0848 64.9973V61.3795L61.1725 66.3444ZM60.9519 64.5523V64.55L60.9449 64.5435L60.9519 64.5523Z" fill="#231F20"/>
  <path d="M64.0808 65.0318C63.9822 65.3215 63.8639 65.5462 63.8639 65.6979C63.8639 65.9553 64.2765 65.9976 64.5986 65.9976H64.7079V66.2543C64.3147 66.2358 63.9151 66.2213 63.5211 66.2213C63.1686 66.2213 62.8179 66.2358 62.4643 66.2543V65.9976H62.524C62.905 65.9976 63.2294 65.8005 63.3747 65.4412L64.9414 61.518C65.0693 61.2008 65.2457 60.7736 65.3054 60.4564C65.6168 60.3628 66.01 60.1929 66.1954 60.0891C66.2258 60.0802 66.2439 60.0715 66.2736 60.0715C66.3032 60.0715 66.3214 60.0715 66.3429 60.0984C66.3718 60.1661 66.4003 60.2431 66.4307 60.3114L68.2333 64.7839C68.3508 65.0823 68.4671 65.3985 68.5924 65.6565C68.7118 65.8963 68.9175 65.9976 69.2418 65.9976H69.3004V66.2543C68.8593 66.2358 68.4175 66.2213 67.9497 66.2213C67.4697 66.2213 66.9786 66.2358 66.4793 66.2543V65.9976H66.5872C66.811 65.9976 67.1954 65.9636 67.1954 65.7497C67.1954 65.6393 67.1068 65.4082 66.9975 65.1335L66.6161 64.1421H64.3936L64.0808 65.0318ZM65.5104 61.2439H65.49L64.58 63.6638H66.4096L65.5104 61.2439Z" fill="#231F20"/>
  <path d="M69.2974 66.2907C68.8574 66.2743 68.416 66.2552 67.9497 66.2552C67.4697 66.2552 66.9811 66.2743 66.4815 66.2907L66.4363 66.2927V66.2542V65.9587H66.4793H66.5871C66.814 65.9587 67.1505 65.9143 67.1513 65.7496C67.1535 65.6521 67.0657 65.4179 66.9578 65.146L66.5849 64.1786H64.4251L64.1204 65.0428C64.0218 65.3334 63.9028 65.5593 63.9047 65.6985C63.908 65.9073 64.2735 65.9587 64.5986 65.9587H64.749V65.9975V66.2927L64.7046 66.2907C64.3131 66.2743 63.9136 66.2552 63.5218 66.2552C63.1723 66.2552 62.8183 66.2743 62.4676 66.2907L62.422 66.2927V66.2542V65.9587H62.4639H62.5236C62.8876 65.9581 63.1915 65.7764 63.3331 65.4292L64.9014 61.5046C65.0278 61.188 65.2057 60.7629 65.2902 60.421C65.5975 60.3301 65.9915 60.1575 66.1794 60.0544C66.2068 60.0459 66.2339 60.0349 66.2732 60.0349C66.2973 60.0336 66.3499 60.039 66.3818 60.0838C66.4096 60.154 66.4407 60.2307 66.4704 60.2996L68.2733 64.7716C68.3885 65.0709 68.5057 65.3868 68.6339 65.6402C68.7473 65.8681 68.9271 65.9581 69.2418 65.9587H69.3408V65.9975V66.2927L69.2974 66.2907ZM66.5219 66.2147C67.0063 66.1998 67.4819 66.1832 67.9497 66.1832C68.4037 66.1832 68.8307 66.1998 69.2562 66.2147V66.0357H69.2418C68.906 66.0376 68.6751 65.9224 68.555 65.6703C68.4275 65.412 68.3085 65.0946 68.1928 64.7952L66.3899 60.3229C66.3603 60.2546 66.3325 60.1782 66.3069 60.1174C66.2973 60.109 66.2995 60.109 66.2917 60.109H66.2732C66.2535 60.109 66.2417 60.1142 66.2165 60.1197C66.0282 60.2265 65.6357 60.3951 65.3443 60.4618C65.2846 60.7857 65.1082 61.2129 64.9811 61.5299L63.4143 65.4535C63.2653 65.825 62.9209 66.0363 62.5236 66.0357H62.5073V66.2147C62.8431 66.1998 63.1819 66.1832 63.5218 66.1832C63.9006 66.1832 64.2868 66.1998 64.6616 66.2147V66.0357H64.5986C64.2787 66.0318 63.8331 66.0014 63.822 65.6985C63.8228 65.5289 63.9429 65.3102 64.0389 65.021L64.0804 65.0317L64.0389 65.0201L64.3613 64.1064H66.6446L67.0367 65.1218C67.1468 65.3969 67.2358 65.6247 67.2358 65.7496C67.2213 66.0114 66.8092 66.0309 66.5871 66.0357H66.5219V66.2147ZM64.5203 63.7006L65.4577 61.2058H65.5104H65.5397L66.4704 63.7006H64.5203ZM64.6375 63.6258H66.3518L65.4996 61.3347L64.6375 63.6258Z" fill="#231F20"/>
  <path d="M69.7323 60.7134C68.998 60.7134 68.9683 60.8681 68.8208 61.4914H68.5265C68.5651 61.252 68.6151 61.0127 68.6455 60.7648C68.6837 60.5244 68.7026 60.2858 68.7026 60.0385H68.9394C69.0161 60.2952 69.2615 60.2858 69.5258 60.2858H74.5794C74.8425 60.2858 75.0872 60.2775 75.1064 60.0207L75.3407 60.0557C75.3044 60.2858 75.2654 60.5169 75.2347 60.7483C75.2132 60.9791 75.2132 61.2092 75.2132 61.44L74.9207 61.5352C74.9033 61.2192 74.854 60.7134 74.1965 60.7134H72.5908V65.2623C72.5908 65.9219 72.934 65.9972 73.4033 65.9972H73.5904V66.2543C73.2079 66.2543 72.5237 66.2213 71.9936 66.2213C71.4073 66.2213 70.7201 66.2543 70.3383 66.2543V65.9972H70.5247C71.0644 65.9972 71.3376 65.9553 71.3376 65.28V60.7134H69.7323Z" fill="#231F20"/>
  <path d="M73.5904 66.2908C73.2057 66.2908 72.5192 66.2569 71.9929 66.2569C71.408 66.2569 70.7223 66.2908 70.3386 66.2908H70.2953V66.2542V65.9604H70.3386H70.5247C71.0647 65.9494 71.2812 65.9432 71.2942 65.28L71.2934 60.7499H69.7322V60.7133V60.6752H71.3798V65.28C71.3798 65.9665 71.0625 66.0341 70.5247 66.0358H70.3805V66.2177C70.7675 66.2148 71.4254 66.1833 71.9929 66.1833C72.5047 66.1833 73.1601 66.2148 73.5467 66.2177V66.0358H73.4029C72.931 66.0341 72.5496 65.9351 72.5489 65.2623V60.6752H74.1964C74.8544 60.6774 74.94 61.1648 74.9589 61.483L75.1716 61.4146C75.1716 61.1914 75.1731 60.9677 75.1931 60.7441C75.2195 60.5237 75.2565 60.3048 75.2921 60.0868L75.1442 60.064C75.0994 60.3129 74.8228 60.3269 74.5793 60.3229H69.5258H69.4757C69.2448 60.3252 68.995 60.3136 68.906 60.0744H68.7459C68.7437 60.3111 68.7244 60.5408 68.6859 60.7687C68.6592 61.0046 68.6121 61.2308 68.5747 61.4557H68.7852C68.9138 60.8592 68.9987 60.6658 69.7322 60.6752V60.7133V60.7499C69.0061 60.7609 69.022 60.8684 68.8623 61.5001L68.8552 61.5293H68.8208H68.4772L68.4831 61.4868C68.5242 61.2463 68.5724 61.0063 68.601 60.7599C68.641 60.5208 68.6592 60.2835 68.6592 60.0385V60.0007H68.7025H68.9701L68.9783 60.0275C69.0469 60.243 69.2252 60.2447 69.4757 60.2486H69.5258H74.5793C74.8503 60.2447 75.0478 60.2414 75.0653 60.0185L75.0667 59.9773L75.1123 59.9851L75.3903 60.0233L75.3837 60.0611C75.3433 60.2907 75.3062 60.5208 75.2765 60.7499C75.2565 60.9791 75.2565 61.2092 75.2565 61.4399V61.4658L75.228 61.4758L74.8814 61.5866L74.8799 61.537C74.8544 61.2152 74.8154 60.7499 74.1964 60.7499H72.633V65.2623C72.643 65.9069 72.9362 65.9523 73.4029 65.9604H73.6312V65.9972V66.2908H73.5904Z" fill="#231F20"/>
  <path d="M75.705 65.9972H75.8421C76.195 65.9972 76.5657 65.9553 76.5657 65.5102V61.0308C76.5657 60.5852 76.195 60.5428 75.8421 60.5428H75.705V60.2858C76.0871 60.2858 76.6735 60.3198 77.1528 60.3198C77.6435 60.3198 78.2314 60.2858 78.6925 60.2858V60.5428H78.555C78.201 60.5428 77.8289 60.5852 77.8289 61.0308V65.5102C77.8289 65.9553 78.201 65.9972 78.555 65.9972H78.6925V66.2543C78.2221 66.2543 77.6339 66.2213 77.145 66.2213C76.6643 66.2213 76.0871 66.2543 75.705 66.2543V65.9972Z" fill="#231F20"/>
  <path d="M78.6925 66.2908C78.2191 66.2908 77.6335 66.2552 77.145 66.2552C76.6657 66.2552 76.0875 66.2908 75.705 66.2908H75.6631V66.2542V65.9972V65.9604H75.705H75.8425C76.1953 65.9552 76.5208 65.9281 76.523 65.5102V61.0308C76.5208 60.613 76.1953 60.5852 75.8425 60.5797H75.6631V60.5424V60.2486H75.705C76.0875 60.2486 76.6765 60.2818 77.1528 60.2818C77.6409 60.2818 78.2284 60.2486 78.6925 60.2486H78.7332V60.2858V60.5797H78.6925H78.5553C78.1969 60.5852 77.8748 60.613 77.8715 61.0308V65.5102C77.8748 65.9281 78.1969 65.9552 78.5553 65.9604H78.7332V65.9972V66.2908H78.6925ZM78.648 66.217V66.0358H78.5553C78.2039 66.0358 77.7884 65.982 77.7884 65.5102V61.0308C77.7884 60.558 78.2039 60.5053 78.5553 60.5046H78.648V60.3227C78.1965 60.3252 77.6294 60.3563 77.1528 60.3563C76.688 60.3563 76.1275 60.3252 75.7476 60.3227V60.5046H75.8425C76.1902 60.5053 76.6075 60.558 76.6086 61.0308V65.5102C76.6075 65.982 76.1902 66.0358 75.8425 66.0358H75.7476V66.217C76.1249 66.2131 76.6787 66.1833 77.145 66.1833C77.6198 66.1833 78.1862 66.2148 78.648 66.217Z" fill="#231F20"/>
  <path d="M82.5978 60.1576C84.6853 60.1576 86.3492 61.2875 86.3492 63.1086C86.3492 65.0756 84.7332 66.3827 82.6482 66.3827C80.5714 66.3827 78.9857 65.1513 78.9857 63.3126C78.9857 61.5351 80.5618 60.1576 82.5978 60.1576ZM82.7457 66.0063C84.6461 66.0063 84.9774 64.5431 84.9774 63.2964C84.9774 62.0468 84.2057 60.5341 82.5793 60.5341C80.8661 60.5341 80.3564 61.8682 80.3564 63.0129C80.3564 64.5431 81.16 66.0063 82.7457 66.0063Z" fill="#231F20"/>
  <path d="M78.942 63.3126C78.9461 61.5145 80.5403 60.1234 82.5974 60.1205V60.1577V60.1952C80.5844 60.1952 79.0273 61.5539 79.025 63.3126C79.0291 65.1307 80.5918 66.3437 82.6486 66.3444C84.7124 66.3437 86.3051 65.0552 86.3077 63.1075C86.3059 61.3089 84.6683 60.1969 82.5974 60.1952V60.1577V60.1205C84.6998 60.1224 86.3874 61.2633 86.3911 63.1075C86.3889 65.0948 84.7536 66.4155 82.6486 66.4188C80.554 66.4155 78.9461 65.1717 78.942 63.3126ZM80.3134 63.013C80.3164 61.8624 80.8305 60.496 82.5789 60.496C84.2417 60.4992 85.0171 62.0401 85.0204 63.2965C85.0171 64.5432 84.6813 66.0414 82.7461 66.0414V66.0064V65.9689C84.6079 65.9676 84.9315 64.5432 84.9344 63.2965C84.9344 62.0579 84.1705 60.5736 82.5789 60.5714C80.8991 60.573 80.4028 61.8741 80.3983 63.013C80.3991 64.5361 81.1952 65.9666 82.7461 65.9689V66.0064V66.0414C81.1207 66.0401 80.3164 64.5523 80.3134 63.013Z" fill="#231F20"/>
  <path d="M92.9496 64.569L92.97 64.5522V61.3468C92.97 60.6451 92.4099 60.5424 92.1164 60.5424H91.9032V60.2858C92.3621 60.2858 92.8136 60.3198 93.2724 60.3198C93.675 60.3198 94.0764 60.2858 94.4782 60.2858V60.5424H94.331C93.9207 60.5424 93.4585 60.6107 93.4585 61.6283V65.5186C93.4585 65.8183 93.4689 66.1173 93.5186 66.3827H93.1461L88.1021 61.4739V64.9976C88.1021 65.742 88.2693 65.9972 89.0217 65.9972H89.1896V66.2543C88.7682 66.2543 88.3479 66.2209 87.9268 66.2209C87.4857 66.2209 87.035 66.2543 86.5943 66.2543V65.9972H86.7318C87.4086 65.9972 87.6129 65.5953 87.6129 64.9134V61.3109C87.6129 60.8325 87.164 60.5424 86.7211 60.5424H86.5943V60.2858C86.9664 60.2858 87.3478 60.3198 87.7207 60.3198C88.0139 60.3198 88.2964 60.2858 88.5914 60.2858L92.9496 64.569Z" fill="#231F20"/>
  <path d="M93.5189 66.4188L93.1138 66.4068L88.1444 61.5711V64.9977C88.1559 65.7421 88.2852 65.9514 89.0206 65.9589H89.2315V65.9977V66.2909H89.19C88.766 66.2909 88.3456 66.2566 87.9268 66.2566C87.4879 66.2566 87.0372 66.2909 86.5932 66.2909H86.5531V66.2543V65.9589H86.5932H86.7314C87.3767 65.9572 87.5628 65.5941 87.5706 64.9131V61.3109C87.5702 60.8552 87.1421 60.5798 86.7214 60.5798H86.5531V60.5425V60.2487H86.5932C86.9686 60.2487 87.3504 60.282 87.7203 60.282C88.0109 60.282 88.2923 60.2487 88.6244 60.262L92.927 64.4917V61.3469C92.9236 60.6678 92.4021 60.5853 92.1163 60.5798H91.8584V60.5425V60.2487H91.9032C92.3632 60.2487 92.815 60.282 93.2713 60.282C93.672 60.282 94.0716 60.2487 94.4786 60.2487H94.5197V60.2859V60.5798H94.4786H94.3307C93.927 60.5888 93.5104 60.6212 93.5022 61.6284V65.5187C93.5022 65.818 93.51 66.1165 93.5575 66.3767L93.566 66.4188H93.5189ZM93.146 66.3444H93.467C93.4255 66.0871 93.4159 65.8031 93.4159 65.5187V61.6284C93.4159 60.6004 93.9103 60.507 94.3307 60.5047H94.4367V60.3228C94.0478 60.3253 93.6627 60.3564 93.2713 60.3564C92.8254 60.3564 92.3877 60.3253 91.9444 60.3228V60.5047H92.1163C92.4188 60.507 93.01 60.6238 93.01 61.3469L92.9996 64.5792L92.9807 64.5956L92.9496 64.6238L88.5918 60.3228C88.3019 60.3228 88.0169 60.3564 87.7203 60.3564C87.3593 60.3564 86.9916 60.3253 86.6354 60.3228V60.5047H86.7214C87.1818 60.507 87.6547 60.8102 87.6547 61.3109V64.9131C87.6547 65.5973 87.436 66.0342 86.7314 66.0365L86.6354 66.0359V66.2174C87.0606 66.2149 87.4965 66.1834 87.9268 66.1834C88.3353 66.1834 88.7411 66.2149 89.147 66.2174V66.0365H89.0206C88.2522 66.0359 88.0595 65.7421 88.0595 64.9977V61.3782L93.146 66.3444ZM92.927 64.5523V64.55L92.9192 64.5435L92.927 64.5523Z" fill="#231F20"/>
  <path d="M96.0533 65.0318C95.9573 65.3215 95.8391 65.5462 95.8391 65.6979C95.8391 65.9553 96.2516 65.9976 96.5726 65.9976H96.682V66.2543C96.2898 66.2358 95.888 66.2213 95.4958 66.2213C95.1433 66.2213 94.7912 66.2358 94.4402 66.2543V65.9976H94.4958C94.8798 65.9976 95.2041 65.8005 95.3472 65.4412L96.9173 61.518C97.0437 61.2008 97.2209 60.7736 97.2772 60.4564C97.5919 60.3628 97.9826 60.1929 98.1713 60.0891C98.1987 60.0802 98.2183 60.0715 98.2487 60.0715C98.2773 60.0715 98.2958 60.0715 98.3158 60.0984C98.3455 60.1661 98.3747 60.2431 98.4044 60.3114L100.206 64.7839C100.323 65.0823 100.441 65.3985 100.569 65.6565C100.687 65.8963 100.892 65.9976 101.215 65.9976H101.275V66.2543C100.834 66.2358 100.393 66.2213 99.9223 66.2213C99.4434 66.2213 98.953 66.2358 98.453 66.2543V65.9976H98.5616C98.7854 65.9976 99.1694 65.9636 99.1694 65.7497C99.1694 65.6393 99.0816 65.4082 98.9723 65.1335L98.5905 64.1421H96.368L96.0533 65.0318ZM97.4852 61.2439H97.4655L96.5526 63.6638H98.3866L97.4852 61.2439Z" fill="#231F20"/>
  <path d="M101.271 66.2907C100.829 66.2755 100.39 66.2564 99.9226 66.2564C99.4448 66.2564 98.9541 66.2755 98.4552 66.2907L98.4118 66.2927V66.2542V65.9604H98.4537H98.5608C98.7884 65.9604 99.1257 65.9143 99.1261 65.7496C99.1287 65.6521 99.0401 65.4189 98.93 65.146L98.5586 64.1786H96.3969L96.0945 65.0428C95.9959 65.3357 95.8802 65.5593 95.8813 65.6978C95.8813 65.9073 96.2486 65.9604 96.5722 65.9604H96.722V65.9971V66.2927L96.6779 66.2907C96.2868 66.2755 95.8858 66.2564 95.4958 66.2564C95.1448 66.2564 94.7934 66.2755 94.4402 66.2907L94.3976 66.2927V66.2542V65.9604H94.4402H94.4958C94.8609 65.9587 95.1663 65.7761 95.3098 65.4292L96.8758 61.5046C97.0015 61.188 97.1783 60.7629 97.2643 60.4222C97.5719 60.3291 97.9652 60.1575 98.1557 60.0544C98.1809 60.0459 98.2083 60.0355 98.2484 60.0355C98.2736 60.0336 98.3251 60.039 98.3551 60.0857C98.3848 60.153 98.4137 60.2307 98.4455 60.2996L100.246 64.7716C100.364 65.0709 100.481 65.3868 100.608 65.6419C100.723 65.8681 100.9 65.9581 101.214 65.9604H101.315V65.9971V66.2927L101.271 66.2907ZM98.4948 66.2153C98.9793 66.1998 99.4556 66.1832 99.9226 66.1832C100.378 66.1832 100.804 66.1998 101.231 66.2147L101.23 66.0357H101.214C100.882 66.0363 100.651 65.9224 100.529 65.6703C100.4 65.412 100.283 65.0946 100.166 64.7961L98.364 60.3229C98.3351 60.2546 98.304 60.1782 98.281 60.1191C98.2728 60.109 98.2736 60.109 98.2676 60.109H98.2484C98.2272 60.109 98.2165 60.1148 98.1931 60.1206C98.0015 60.2251 97.6097 60.3967 97.3206 60.4618C97.2598 60.7857 97.0819 61.2123 96.9559 61.5299L95.3876 65.4535C95.2386 65.825 94.8965 66.0363 94.4958 66.0357H94.4814V66.2147C94.8187 66.1998 95.1552 66.1832 95.4958 66.1832C95.875 66.1832 96.2624 66.1998 96.6386 66.2147V66.0357H96.5722C96.2538 66.0318 95.8076 66.0023 95.795 65.6978C95.7976 65.5289 95.918 65.3108 96.014 65.021L96.0533 65.0317L96.014 65.0201L96.3361 64.1064H98.6186L99.0119 65.1218C99.1198 65.3969 99.2091 65.6247 99.2091 65.7496C99.195 66.0114 98.7832 66.0309 98.5608 66.0357H98.4948V66.2153ZM96.494 63.7002L97.4344 61.2058H97.4852H97.5148L98.4407 63.7002H96.494ZM96.6123 63.6258H98.3255L97.4737 61.3359L96.6123 63.6258Z" fill="#231F20"/>
  <path d="M103.743 65.4157C103.743 65.7594 104.015 65.8607 104.33 65.8963C104.73 65.9219 105.171 65.9219 105.623 65.8782C106.034 65.8351 106.386 65.6312 106.562 65.4157C106.718 65.2279 106.806 64.9885 106.866 64.8008H107.149C107.041 65.2881 106.905 65.7675 106.787 66.2543C105.927 66.2543 105.063 66.2213 104.202 66.2213C103.34 66.2213 102.479 66.2543 101.618 66.2543V65.9972H101.753C102.106 65.9972 102.49 65.9553 102.49 65.425V61.0308C102.49 60.5852 102.106 60.5425 101.753 60.5425H101.618V60.2858C102.136 60.2858 102.646 60.3198 103.164 60.3198C103.664 60.3198 104.153 60.2858 104.654 60.2858V60.5425H104.407C104.035 60.5425 103.743 60.5515 103.743 61.0047V65.4157Z" fill="#231F20"/>
  <path d="M106.787 66.2908C105.924 66.2908 105.061 66.2565 104.203 66.2565C103.341 66.2565 102.479 66.2908 101.616 66.2908H101.575V66.2542V65.9604H101.616H101.753C102.107 65.9529 102.443 65.9312 102.447 65.425V61.0291C102.443 60.613 102.109 60.5852 101.753 60.5797H101.575V60.5424V60.2486H101.616C102.137 60.2486 102.647 60.2818 103.163 60.2818C103.662 60.2818 104.15 60.2486 104.654 60.2486H104.693V60.2858V60.5797H104.654H104.407C104.028 60.588 103.792 60.5731 103.783 61.0046V65.4157C103.786 65.7354 104.026 65.8208 104.332 65.859C104.504 65.8694 104.687 65.8749 104.875 65.8749C105.114 65.8749 105.363 65.8652 105.616 65.8419C106.015 65.8005 106.358 65.5992 106.528 65.3953C106.679 65.2123 106.764 64.9781 106.823 64.792L106.832 64.7638H106.865H107.201L107.192 64.8088C107.081 65.2976 106.947 65.7745 106.828 66.2619L106.82 66.2908H106.787ZM106.752 66.217C106.865 65.7526 106.993 65.2984 107.099 64.8372H106.897C106.837 65.0233 106.749 65.2528 106.596 65.4389C106.413 65.6603 106.05 65.8694 105.625 65.9154C105.369 65.938 105.115 65.9497 104.875 65.9497C104.685 65.9497 104.502 65.9422 104.324 65.9312C104.005 65.9009 103.697 65.7814 103.698 65.4157V61.0046C103.698 60.5291 104.042 60.5046 104.407 60.5046H104.609V60.3227C104.127 60.3252 103.651 60.3573 103.163 60.3573C102.657 60.3573 102.161 60.3252 101.66 60.3227V60.5046H101.753C102.102 60.5046 102.53 60.558 102.53 61.0291V65.425C102.53 65.9785 102.104 66.0358 101.753 66.0358H101.66V66.217C102.506 66.2154 103.352 66.1833 104.203 66.1833C105.054 66.1833 105.904 66.2154 106.752 66.217Z" fill="#231F20"/>
  <path d="M107.031 60.044C107.622 60.044 108.063 60.44 108.063 60.9461C108.063 61.4517 107.622 61.8435 107.031 61.8435C106.442 61.8435 106 61.4517 106 60.9461C106 60.44 106.442 60.044 107.031 60.044ZM107.031 61.6763C107.494 61.6763 107.847 61.333 107.847 60.9461C107.847 60.5584 107.498 60.2125 107.031 60.2125C106.567 60.2125 106.214 60.5584 106.214 60.9461C106.214 61.333 106.567 61.6763 107.031 61.6763ZM106.518 61.4206V61.377C106.644 61.3611 106.668 61.364 106.668 61.2968V60.6296C106.668 60.5358 106.657 60.5034 106.522 60.5087V60.4626H107.05C107.232 60.4626 107.399 60.5384 107.399 60.7021C107.399 60.8357 107.298 60.9351 107.155 60.9736L107.325 61.18C107.404 61.2732 107.494 61.3611 107.551 61.3922V61.4206H107.351C107.255 61.4206 107.169 61.2441 106.98 61.0068H106.866V61.3053C106.866 61.364 106.89 61.3611 107.017 61.377V61.4206H106.518ZM106.866 60.9461H106.988C107.121 60.9461 107.182 60.8583 107.182 60.7163C107.182 60.5734 107.087 60.5225 106.981 60.5225H106.866V60.9461Z" fill="#231F20"/>
  <path d="M45.8549 30.0888C45.8549 22.0911 53.2801 15.6077 62.439 15.6077C71.5984 15.6077 79.0234 22.0911 79.0234 30.0888C79.0234 38.0865 71.5984 44.5702 62.439 44.5702C53.2801 44.5702 45.8549 38.0865 45.8549 30.0888Z" fill="white"/>
  <path d="M72.4685 29.8034C72.4618 26.095 69.8072 22.9323 66.0665 21.6797V37.9264C69.8072 36.6722 72.4618 33.5124 72.4685 29.8034ZM58.9306 37.9231V21.6814C55.1932 22.9378 52.5426 26.096 52.5326 29.8034C52.5426 33.5095 55.1932 36.6677 58.9306 37.9231ZM62.5004 16.0712C53.8151 16.0741 46.7784 22.2196 46.777 29.8034C46.7784 37.3862 53.8151 43.5307 62.5004 43.532C71.1857 43.5307 78.2237 37.3862 78.2259 29.8034C78.2237 22.2196 71.1857 16.0741 62.5004 16.0712ZM62.4618 44.828C52.9578 44.8674 45.1354 38.1442 45.1354 29.96C45.1354 21.0156 52.9578 14.829 62.4618 14.8306H66.9157C76.3074 14.829 84.8789 21.0127 84.8789 29.96C84.8789 38.1413 76.3074 44.828 66.9157 44.828H62.4618Z" fill="#214E8D"/>
</svg>
